<?xml version="1.0" encoding="UTF-8" standalone="no"?>
<!-- Created with Inkscape (http://www.inkscape.org/) -->

<svg
   width="100"
   height="100"
   viewBox="0 0 26.458333 26.458333"
   version="1.1"
   id="svg1"
   xml:space="preserve"
   inkscape:version="1.2.2 (b0a8486541, 2022-12-01)"
   sodipodi:docname="logo.svg"
   inkscape:export-filename="logo.png"
   inkscape:export-xdpi="960.00006"
   inkscape:export-ydpi="960.00006"
   xmlns:inkscape="http://www.inkscape.org/namespaces/inkscape"
   xmlns:sodipodi="http://sodipodi.sourceforge.net/DTD/sodipodi-0.dtd"
   xmlns="http://www.w3.org/2000/svg"
   xmlns:svg="http://www.w3.org/2000/svg"><sodipodi:namedview
     id="namedview1"
     pagecolor="#ffffff"
     bordercolor="#000000"
     borderopacity="0.25"
     inkscape:showpageshadow="2"
     inkscape:pageopacity="0.0"
     inkscape:pagecheckerboard="0"
     inkscape:deskcolor="#d1d1d1"
     inkscape:document-units="mm"
     inkscape:zoom="4"
     inkscape:cx="103.625"
     inkscape:cy="45.5"
     inkscape:window-width="1366"
     inkscape:window-height="695"
     inkscape:window-x="0"
     inkscape:window-y="0"
     inkscape:window-maximized="1"
     inkscape:current-layer="layer1"
     showgrid="false" /><defs
     id="defs1" /><g
     inkscape:label="Camada 1"
     inkscape:groupmode="layer"
     id="layer1"><path
       id="path342"
       style="fill:#007bff;fill-opacity:1;stroke-width:0.867"
       d="M 13.229167 1.9104777 A 11.318818 11.318818 0 0 0 1.9104777 13.229167 A 11.318818 11.318818 0 0 0 13.229167 24.547856 A 11.318818 11.318818 0 0 0 24.547856 13.229167 A 11.318818 11.318818 0 0 0 13.229167 1.9104777 z M 13.229167 4.3118815 A 8.9175434 8.9175434 0 0 1 22.146969 13.229167 A 8.9175434 8.9175434 0 0 1 13.229167 22.146969 A 8.9175434 8.9175434 0 0 1 4.3118815 13.229167 A 8.9175434 8.9175434 0 0 1 13.229167 4.3118815 z " /><circle
       style="fill:#007bff;fill-opacity:1;stroke-width:0.532463"
       id="path342-6"
       cx="13.229167"
       cy="13.229167"
       r="6.9513841" /><circle
       style="fill:#ffffff;fill-opacity:0.679699;stroke-width:0.867"
       id="path414"
       cx="13.229167"
       cy="13.229167"
       r="1.8554423" /></g></svg>
