<?xml version="1.0" encoding="UTF-8" standalone="no"?>
<!-- Created with Inkscape (http://www.inkscape.org/) -->

<svg
   width="100"
   height="100"
   viewBox="0 0 26.458333 26.458333"
   version="1.1"
   id="svg1"
   xml:space="preserve"
   inkscape:version="1.4.2 (ebf0e940d0, 2025-05-08)"
   sodipodi:docname="logo.svg"
   inkscape:export-filename="logo.png"
   inkscape:export-xdpi="960.00006"
   inkscape:export-ydpi="960.00006"
   xmlns:inkscape="http://www.inkscape.org/namespaces/inkscape"
   xmlns:sodipodi="http://sodipodi.sourceforge.net/DTD/sodipodi-0.dtd"
   xmlns="http://www.w3.org/2000/svg"
   xmlns:svg="http://www.w3.org/2000/svg"><sodipodi:namedview
     id="namedview1"
     pagecolor="#ffffff"
     bordercolor="#000000"
     borderopacity="0.25"
     inkscape:showpageshadow="2"
     inkscape:pageopacity="0.0"
     inkscape:pagecheckerboard="0"
     inkscape:deskcolor="#d1d1d1"
     inkscape:document-units="mm"
     inkscape:zoom="4"
     inkscape:cx="46.375"
     inkscape:cy="45.5"
     inkscape:window-width="1366"
     inkscape:window-height="696"
     inkscape:window-x="0"
     inkscape:window-y="0"
     inkscape:window-maximized="1"
     inkscape:current-layer="layer1" /><defs
     id="defs1" /><g
     inkscape:label="Camada 1"
     inkscape:groupmode="layer"
     id="layer1"><g
       id="g1"
       transform="matrix(1.0036624,0,0,1.0036624,-0.04845043,-0.04845043)"
       style="fill:#007bff;fill-opacity:1"><path
         id="rect1"
         style="fill:#007bff;fill-opacity:1;stroke-width:0.868656"
         d="m 7.5736979,1.1244792 c -1.1726333,0 -2.1166667,0.9440334 -2.1166667,2.1166666 V 23.217187 c 0,1.172634 0.9440334,2.116667 2.1166667,2.116667 H 18.884635 c 1.172634,0 2.116667,-0.944033 2.116667,-2.116667 V 3.2411458 c 0,-1.1726332 -0.944033,-2.1166666 -2.116667,-2.1166666 z m 1.0423137,1.2681396 h 9.2263104 c 0.869144,0 1.568896,0.6997521 1.568896,1.5688965 V 21.372339 c 0,0.869144 -0.699752,1.568896 -1.568896,1.568896 H 8.6160116 c -0.8691445,0 -1.5688965,-0.699752 -1.5688965,-1.568896 V 3.9615153 c 0,-0.8691444 0.699752,-1.5688965 1.5688965,-1.5688965 z M 10.668599,23.596493 h 5.121135 c 0.22025,0 0.397908,0.177141 0.397908,0.397391 0,0.22025 -0.177658,0.397909 -0.397908,0.397909 h -5.121135 c -0.22025,0 -0.397908,-0.177659 -0.397908,-0.397909 0,-0.22025 0.177658,-0.397391 0.397908,-0.397391 z" /><path
         style="fill:#007bff;fill-opacity:1;stroke-width:0.242903"
         d="m 8.9283253,16.08848 c -0.04331,-0.268447 -0.10555,-0.488087 -0.138334,-0.488087 -0.125766,0 -0.31667,-0.265208 -0.31667,-0.439917 0,-0.103299 0.05789,-0.235233 0.133054,-0.303256 0.09967,-0.0902 0.124046,-0.169305 0.09717,-0.315236 -0.01974,-0.107148 -0.09428,-0.599714 -0.165657,-1.09458 C 8.3738576,12.310212 8.3614012,12.25844 8.2518155,12.25844 c -0.130966,0 -0.3569156,-0.312478 -0.3569156,-0.493601 0,-0.08521 0.070991,-0.225913 0.1577489,-0.312675 0.2087022,-0.208701 0.5040935,-0.208701 0.7127955,0 0.173548,0.173548 0.196247,0.330126 0.08367,0.577192 -0.06151,0.134979 -0.04453,0.253418 0.100036,0.697818 0.321887,0.989518 0.706903,1.462359 0.972642,1.194509 0.1417747,-0.142904 0.2766067,-0.776389 0.3237217,-1.520956 l 0.04383,-0.692547 -0.165836,-0.07556 c -0.09121,-0.04156 -0.2124417,-0.165686 -0.2694057,-0.275841 -0.247784,-0.479161 0.2237057,-1.003959 0.7402117,-0.823904 0.394536,0.137535 0.503438,0.61148 0.218352,0.950285 -0.162724,0.193385 -0.165186,0.209695 -0.09366,0.620376 0.204994,1.177164 0.720204,1.804443 1.288667,1.568978 0.359625,-0.148961 0.752334,-0.964314 0.906185,-1.881438 l 0.08378,-0.499496 -0.197858,-0.180715 c -0.237688,-0.217094 -0.303378,-0.397767 -0.249347,-0.685786 0.0962,-0.5127617 0.764608,-0.7256559 1.130267,-0.359998 0.337188,0.337188 0.330811,0.723412 -0.0172,1.041263 l -0.202805,0.185236 0.08379,0.499496 c 0.15385,0.917124 0.546561,1.732477 0.906186,1.881438 0.568462,0.235465 1.083671,-0.391814 1.288666,-1.568978 0.07151,-0.410681 0.06905,-0.426991 -0.09367,-0.620376 -0.499819,-0.594 0.266059,-1.335048 0.841775,-0.814486 0.297348,0.268862 0.213725,0.79703 -0.152617,0.963946 l -0.165836,0.07556 0.04383,0.692547 c 0.04712,0.744567 0.181947,1.378052 0.323722,1.520956 0.265739,0.26785 0.650756,-0.204991 0.972642,-1.194509 0.144561,-0.4444 0.161539,-0.562833 0.100036,-0.697816 -0.112567,-0.247068 -0.08987,-0.403645 0.08367,-0.577193 0.208702,-0.208702 0.504093,-0.208702 0.712795,0 0.08676,0.08677 0.157749,0.227465 0.157749,0.312674 0,0.181123 -0.225948,0.493601 -0.356915,0.493601 -0.111721,0 -0.119992,0.03588 -0.317349,1.378217 -0.159974,1.088037 -0.160003,1.08913 -0.03213,1.225241 0.07039,0.07492 0.127977,0.213898 0.127977,0.308826 0,0.166434 -0.194007,0.429669 -0.31667,0.429669 -0.03277,0 -0.09503,0.21964 -0.138334,0.488087 l -0.07874,0.488086 -0.199074,-0.04025 c -2.35405,-0.475974 -5.692031,-0.475974 -8.0460797,0 l -0.199075,0.04025 z"
         id="path3" /></g></g></svg>
